<svg id="Layer_1" data-name="Layer 1" xmlns="http://www.w3.org/2000/svg" viewBox="0 0 1041 120.56"><defs><style>.cls-1{fill:#33a4a0;}.cls-2{fill:#d9f5fa;}</style></defs><path class="cls-1" d="M28.42,585.56V477.28A170.5,170.5,0,0,1,91.59,465c36,0,60.18,11.71,62.15,12.69a224.87,224.87,0,0,0,101.43,22.93c25.11-.25,42.34-4.6,44.76-5.24a326.63,326.63,0,0,1,83.29-18.08,265.57,265.57,0,0,1,64.18,2.63c32.44,5.44,52.19,15.61,56,17.69,28.7,12.79,61.06,16.36,96.18,10.59a195.46,195.46,0,0,0,45.16-12.86c28.53-15.48,62.63-21.93,98.63-18.64,27.17,2.47,46,9.58,46.75,9.88a217.11,217.11,0,0,0,95.09,13.64c23.65-2,39.07-7.24,40.25-7.65,87.77-33.85,141.67-26.58,143.92-26.25l.06,25.23v94Z" transform="translate(-28.42 -465)"/><path class="cls-2" d="M28.42,500.56V477.28A170.5,170.5,0,0,1,91.59,465c36,0,60.18,11.71,62.15,12.69a224.87,224.87,0,0,0,101.43,22.93c25.11-.25,42.34-4.6,44.76-5.24a326.63,326.63,0,0,1,83.29-18.08,265.57,265.57,0,0,1,64.18,2.63c32.44,5.44,52.19,15.61,56,17.69,28.7,12.79,61.06,16.36,96.18,10.59a195.46,195.46,0,0,0,45.16-12.86c28.53-15.48,62.63-21.93,98.63-18.64,27.17,2.47,46,9.58,46.75,9.88a217.11,217.11,0,0,0,95.09,13.64c23.65-2,39.07-7.24,40.25-7.65,87.77-33.85,141.67-26.58,143.92-26.25l.06,25.23-3.49-1.23c-.12,0-12.66-1.67-35.07.56-20.7,2.06-54.31,8-96.82,24.37l-.18.07c-.73.26-18.23,6.61-45.72,9a241.24,241.24,0,0,1-106.73-15.08c-.13,0-17-6.34-41-8.44-31.52-2.75-59.93,2.66-84.45,16.06l-.66.33c-.84.4-21.06,9.81-51,14.83C564.47,538.69,526,534.37,493,519.52l-.57-.25-.54-.31c-.14-.08-18.17-10.22-49.73-15.32a242.38,242.38,0,0,0-57.94-2.09,302.9,302.9,0,0,0-76.58,16.84l-.69.22c-.83.24-20.56,5.84-50.57,6.24-27.55.38-69.58-3.73-113.39-25.43l-.07,0c-.08,0-11.92-5.81-30.85-8.6C86.92,487.1,52.86,490.87,28.42,500.56Z" transform="translate(-28.42 -465)"/></svg>