<svg id="Layer_1" data-name="Layer 1" xmlns="http://www.w3.org/2000/svg" viewBox="0 0 1041.42 120.56"><defs><style>.cls-1{fill:#fff;}.cls-2{fill:#fff3e1;}</style></defs><path class="cls-1" d="M1069.42,465V573.28a170.5,170.5,0,0,1-63.17,12.28c-36,0-60.18-11.71-62.15-12.69a224.87,224.87,0,0,0-101.43-22.93c-25.11.25-42.34,4.6-44.76,5.24a326.63,326.63,0,0,1-83.29,18.08,265.57,265.57,0,0,1-64.18-2.63c-32.44-5.44-52.19-15.61-56-17.69-28.7-12.79-61.06-16.36-96.18-10.59a195.46,195.46,0,0,0-45.16,12.86c-28.53,15.48-62.63,21.93-98.63,18.64-27.17-2.47-46-9.58-46.75-9.88a217.11,217.11,0,0,0-95.09-13.64c-23.65,1.95-39.07,7.24-40.25,7.65C84.63,591.83,30.73,584.56,28.48,584.23L28.42,559V465Z" transform="translate(-28 -465)"/><path class="cls-2" d="M1008,585.37a157.26,157.26,0,0,1-24-1.82c-21.44-3.3-34.64-9.86-35.2-10.14-40.6-20.11-79.63-24-105.22-23.67-26.58.32-44.59,5.07-46.32,5.54a320.7,320.7,0,0,1-82,17.85,259,259,0,0,1-62.71-2.57c-32.63-5.46-51.69-15.69-54.24-17.12-37.59-16.84-75.63-15.37-100.95-11.16-26.51,4.4-45,12.65-46.76,13.43-34.7,18.91-71,20.24-95.27,18-26.31-2.4-44.31-9.2-45.06-9.49a224.38,224.38,0,0,0-98.81-14c-24.78,2.09-40.8,7.72-41.65,8C124.78,575.59,89,581.74,67,583.83c-24.18,2.31-37.58.43-38.14.35L28,573c.13,0,15.42,2.27,38.48,0C87.77,571,122.32,565,166,548.11l.08,0c.69-.26,17.41-6.32,44.08-8.62a235.12,235.12,0,0,1,104,14.69c.16.06,17.6,6.62,42.51,8.85,22.77,2,56.68.77,88.93-16.86l.29-.14c.81-.39,20.27-9.44,49.37-14.32,26.93-4.52,67.48-6.1,107.73,12l.26.11.24.14c.18.11,18.81,10.68,51.44,16.06a248.85,248.85,0,0,0,59.92,2.32,310,310,0,0,0,79-17.28l.31-.1c.79-.23,19.73-5.6,48.92-6,26.87-.36,67.87,3.64,110.58,24.8.15.08,12.57,6.2,32.45,9.2,18.26,2.76,50.75,2.81,82.9-9.94v10.61A165,165,0,0,1,1008,585.37Z" transform="translate(-28 -465)"/></svg>